<?xml version="1.0" standalone="no"?>
<!DOCTYPE svg PUBLIC "-//W3C//DTD SVG 20010904//EN"
 "http://www.w3.org/TR/2001/REC-SVG-20010904/DTD/svg10.dtd">
<svg version="1.0" xmlns="http://www.w3.org/2000/svg"
 width="1000.000000pt" height="323.000000pt" viewBox="0 0 1000.000000 323.000000"
 preserveAspectRatio="xMidYMid meet">

<g transform="translate(0.000000,323.000000) scale(0.100000,-0.100000)"
fill="gold" stroke="none">
<path d="M2011 3063 c-232 -233 -359 -452 -443 -767 l-13 -48 -38 55 c-21 30
-45 62 -55 70 -16 15 -17 10 -14 -67 3 -51 -3 -116 -13 -167 -23 -121 -21
-117 -58 -82 -45 44 -168 135 -174 129 -3 -2 2 -15 11 -28 32 -49 38 -117 21
-248 -16 -125 -14 -188 11 -248 17 -42 73 -114 83 -107 5 2 14 31 21 64 9 45
10 74 1 123 -6 36 -11 96 -11 134 0 69 0 69 16 39 19 -36 43 -64 67 -77 15 -7
30 4 91 65 40 41 87 82 104 91 35 18 39 38 22 111 -5 22 -7 41 -5 43 2 2 27
-17 54 -43 28 -27 53 -46 55 -44 2 2 11 44 20 92 20 105 67 249 107 330 16 31
31 57 32 57 2 0 -2 -28 -9 -62 -18 -83 -17 -210 0 -295 22 -102 20 -100 84
-107 31 -4 84 -18 117 -32 100 -43 91 -47 122 55 15 50 31 91 34 91 24 0 65
-199 53 -258 -4 -20 0 -33 15 -46 21 -19 22 -19 78 10 41 21 64 41 80 69 l21
39 8 -38 c9 -48 -2 -181 -22 -271 -28 -126 -14 -163 34 -88 64 100 76 146 77
283 0 106 -4 135 -24 194 -18 54 -22 79 -17 120 l7 51 -52 -68 -53 -68 -42
128 c-49 152 -89 242 -149 339 -69 111 -73 111 -67 -5 3 -70 0 -120 -12 -172
-16 -71 -59 -179 -71 -179 -3 0 -3 30 0 68 9 84 -7 220 -42 360 -51 204 -30
364 67 510 12 17 19 32 15 32 -4 0 -69 -62 -144 -137z"/>
<path d="M6631 2268 c-58 -31 -83 -117 -46 -158 16 -18 15 -19 -15 -35 -43
-22 -105 -80 -131 -122 -18 -28 -20 -39 -10 -59 14 -32 46 -31 74 3 47 59 101
102 143 117 l44 15 0 -39 c0 -36 -4 -42 -38 -59 -50 -25 -106 -88 -123 -137
-11 -31 -14 -137 -14 -512 0 -457 1 -474 19 -488 30 -22 428 -20 450 2 14 14
16 72 16 486 0 328 -4 482 -12 509 -15 50 -69 114 -119 140 -37 18 -39 22 -39
64 l0 45 90 0 c83 0 90 -2 90 -20 0 -14 9 -21 33 -25 60 -10 366 -55 376 -55
7 0 11 49 11 146 0 134 -1 145 -17 141 -10 -3 -105 -18 -210 -33 -170 -24
-193 -30 -193 -46 0 -16 -10 -18 -90 -18 l-90 0 0 30 c0 25 -4 30 -24 30 -15
0 -27 7 -30 18 -17 52 -97 85 -145 60z m85 -73 c15 -23 15 -27 0 -51 -23 -33
-64 -30 -85 8 -14 24 -14 28 3 47 26 29 62 27 82 -4z"/>
<path d="M10 1505 l0 -715 125 0 125 0 0 77 0 76 50 -52 c32 -33 75 -64 117
-84 62 -29 76 -32 168 -32 93 0 105 2 166 32 83 41 160 121 200 208 79 167 77
445 -2 602 -119 234 -432 304 -617 137 -28 -24 -53 -44 -56 -44 -3 0 -6 115
-6 255 l0 255 -135 0 -135 0 0 -715z m586 116 c53 -24 108 -90 125 -149 9 -29
14 -97 14 -178 0 -125 -1 -133 -30 -189 -72 -141 -224 -167 -335 -56 -57 57
-78 114 -87 231 -12 177 41 297 152 346 43 19 113 17 161 -5z"/>
<path d="M2892 1508 l3 -713 133 -3 132 -3 0 167 0 166 68 70 67 69 130 -233
130 -233 143 -3 c86 -1 142 1 142 7 0 5 -83 154 -186 331 l-185 321 114 122
c62 67 142 152 176 190 l63 67 -168 -1 -169 0 -155 -179 c-85 -99 -158 -179
-162 -180 -5 0 -8 169 -8 375 l0 375 -135 0 -135 0 2 -712z"/>
<path d="M7830 1505 l0 -715 125 0 125 0 0 72 0 72 53 -51 c130 -129 302 -155
459 -71 159 85 239 249 240 493 1 200 -40 322 -143 420 -32 31 -84 68 -116 83
-52 24 -69 27 -168 27 -101 0 -114 -2 -167 -29 -31 -16 -75 -46 -97 -68 l-41
-38 -2 257 -3 258 -132 3 -133 3 0 -716z m591 109 c42 -21 95 -88 115 -145 28
-82 26 -264 -5 -341 -88 -225 -371 -185 -422 61 -18 88 -8 257 20 314 55 113
188 164 292 111z"/>
<path d="M1809 1840 c-272 -43 -439 -245 -439 -530 1 -279 133 -459 385 -525
76 -19 214 -19 290 0 162 43 297 167 356 330 19 51 23 81 23 195 0 118 -3 142
-23 195 -64 162 -180 271 -339 319 -68 20 -182 27 -253 16z m201 -244 c98 -49
146 -157 137 -315 -5 -109 -21 -153 -75 -213 -48 -53 -102 -78 -173 -78 -110
0 -209 79 -240 193 -18 66 -15 194 5 259 50 157 202 225 346 154z"/>
<path d="M4473 1835 c-65 -20 -127 -60 -172 -111 l-41 -47 0 77 0 76 -125 0
-125 0 0 -715 0 -715 135 0 135 0 0 261 0 261 53 -48 c83 -75 144 -99 253 -99
85 1 97 3 166 38 176 87 260 247 261 502 0 210 -57 352 -182 451 -95 76 -246
105 -358 69z m95 -207 c59 -15 123 -77 146 -144 44 -121 28 -323 -32 -408 -61
-89 -191 -113 -281 -53 -90 60 -127 163 -119 332 6 118 29 177 90 229 59 51
118 64 196 44z"/>
<path d="M5699 1836 c-60 -16 -141 -68 -184 -119 l-35 -41 0 77 0 77 -125 0
-125 0 0 -715 0 -715 135 0 135 0 0 261 0 261 53 -48 c122 -110 273 -132 424
-62 64 29 163 130 196 198 107 221 78 542 -62 702 -102 116 -264 164 -412 124z
m85 -207 c60 -15 110 -59 143 -127 27 -54 28 -64 28 -192 0 -119 -3 -141 -23
-185 -45 -99 -109 -139 -208 -133 -152 10 -232 140 -222 363 6 118 29 177 90
229 58 50 118 64 192 45z"/>
<path d="M9050 1503 c1 -360 10 -492 40 -561 42 -93 124 -152 244 -173 125
-21 253 19 351 112 l55 52 0 -337 0 -336 -4800 0 c-4272 0 -4804 -2 -4830 -15
-80 -41 -79 -172 0 -219 26 -15 409 -16 4910 -16 4243 0 4885 2 4909 14 15 8
37 28 47 43 18 27 19 57 22 588 2 308 0 696 -3 863 l-7 302 -133 0 -134 0 -3
-347 -3 -348 -25 -45 c-16 -28 -43 -55 -74 -75 -42 -26 -59 -30 -117 -30 -76
0 -110 17 -143 75 -24 41 -35 197 -36 528 l0 242 -135 0 -135 0 0 -317z"/>
<path d="M7280 925 l0 -135 135 0 135 0 0 135 0 135 -135 0 -135 0 0 -135z"/>
</g>
</svg>
